<mxfile host="app.diagrams.net" modified="2023-04-03T11:03:02.223Z" agent="Mozilla/5.0 (Windows NT 10.0; Win64; x64) AppleWebKit/537.36 (KHTML, like Gecko) Chrome/111.0.0.0 Safari/537.36" etag="3JA22gRBm1WY8amsrs4_" version="21.1.2" type="device">
  <diagram id="tTxPFTGrQ4OZ_3wx2QAl" name="Pagina-1">
    <mxGraphModel dx="3434" dy="2098" grid="0" gridSize="10" guides="1" tooltips="1" connect="1" arrows="1" fold="1" page="0" pageScale="1" pageWidth="827" pageHeight="1169" math="0" shadow="0">
      <root>
        <mxCell id="0" />
        <mxCell id="1" parent="0" />
        <mxCell id="f52ocGWcmNRcFjpljzRT-5" value="" style="rounded=1;whiteSpace=wrap;html=1;dashed=1;fillColor=none;" parent="1" vertex="1">
          <mxGeometry x="-1268" y="-334" width="580" height="280" as="geometry" />
        </mxCell>
        <mxCell id="wiTVFT4P7hwrUB9j7R4p-4" value="" style="edgeStyle=orthogonalEdgeStyle;rounded=0;orthogonalLoop=1;jettySize=auto;html=1;" parent="1" source="UTEY5H4NrM9zh-KiE-rb-14" target="wiTVFT4P7hwrUB9j7R4p-5" edge="1">
          <mxGeometry relative="1" as="geometry">
            <mxPoint x="-1500" y="-320.0000000000002" as="targetPoint" />
          </mxGeometry>
        </mxCell>
        <mxCell id="UTEY5H4NrM9zh-KiE-rb-14" value="&lt;span style=&quot;font-size: 11px;&quot;&gt;Fetch captions &amp;amp; readings&lt;br&gt;&lt;/span&gt;" style="rounded=1;whiteSpace=wrap;html=1;fontSize=12;glass=0;strokeWidth=1;shadow=0;fontStyle=1;labelBackgroundColor=default;labelBorderColor=none;" parent="1" vertex="1">
          <mxGeometry x="-1560" y="-400" width="120" height="40" as="geometry" />
        </mxCell>
        <mxCell id="wiTVFT4P7hwrUB9j7R4p-3" value="" style="edgeStyle=orthogonalEdgeStyle;rounded=0;orthogonalLoop=1;jettySize=auto;html=1;" parent="1" source="UTEY5H4NrM9zh-KiE-rb-21" target="UTEY5H4NrM9zh-KiE-rb-14" edge="1">
          <mxGeometry relative="1" as="geometry" />
        </mxCell>
        <mxCell id="UTEY5H4NrM9zh-KiE-rb-21" value="&lt;span style=&quot;font-size: 11px;&quot;&gt;Parse&lt;br&gt;&lt;/span&gt;" style="rounded=1;whiteSpace=wrap;html=1;fontSize=12;glass=0;strokeWidth=1;shadow=0;fontStyle=1;labelBackgroundColor=default;labelBorderColor=none;" parent="1" vertex="1">
          <mxGeometry x="-1560" y="-480" width="120" height="40" as="geometry" />
        </mxCell>
        <mxCell id="wiTVFT4P7hwrUB9j7R4p-22" value="Yes" style="edgeStyle=orthogonalEdgeStyle;rounded=0;orthogonalLoop=1;jettySize=auto;html=1;labelBackgroundColor=default;entryX=0.5;entryY=0;entryDx=0;entryDy=0;" parent="1" source="UTEY5H4NrM9zh-KiE-rb-36" target="f52ocGWcmNRcFjpljzRT-3" edge="1">
          <mxGeometry relative="1" as="geometry">
            <mxPoint x="-972" y="-299" as="targetPoint" />
          </mxGeometry>
        </mxCell>
        <mxCell id="UTEY5H4NrM9zh-KiE-rb-36" value="&lt;span style=&quot;font-size: 11px;&quot;&gt;Does the plant&lt;br&gt;have suitable actuators?&lt;/span&gt;" style="rhombus;whiteSpace=wrap;html=1;labelBackgroundColor=none;" parent="1" vertex="1">
          <mxGeometry x="-1028" y="-514" width="100" height="80" as="geometry" />
        </mxCell>
        <mxCell id="rIkuIv-mlls3RrGX7SVf-42" value="" style="edgeStyle=orthogonalEdgeStyle;rounded=0;orthogonalLoop=1;jettySize=auto;html=1;startArrow=none;startFill=0;endArrow=classic;endFill=1;exitX=0.5;exitY=1;exitDx=0;exitDy=0;entryX=0.5;entryY=0;entryDx=0;entryDy=0;" parent="1" source="rIkuIv-mlls3RrGX7SVf-41" target="J3JpyXvdzX_cFR_8wN44-9" edge="1">
          <mxGeometry relative="1" as="geometry">
            <mxPoint x="-1340" y="-880" as="targetPoint" />
          </mxGeometry>
        </mxCell>
        <mxCell id="rIkuIv-mlls3RrGX7SVf-40" value="&lt;span style=&quot;font-size: 11px;&quot;&gt;Monitor mode start&lt;br&gt;&lt;/span&gt;" style="rounded=1;whiteSpace=wrap;html=1;fontSize=12;glass=0;strokeWidth=1;shadow=0;fontStyle=1;labelBackgroundColor=default;labelBorderColor=none;" parent="1" vertex="1">
          <mxGeometry x="-1400" y="-1120" width="120" height="40" as="geometry" />
        </mxCell>
        <mxCell id="rIkuIv-mlls3RrGX7SVf-44" value="" style="edgeStyle=orthogonalEdgeStyle;rounded=0;orthogonalLoop=1;jettySize=auto;html=1;startArrow=none;startFill=0;endArrow=classic;endFill=1;" parent="1" source="rIkuIv-mlls3RrGX7SVf-40" target="rIkuIv-mlls3RrGX7SVf-43" edge="1">
          <mxGeometry relative="1" as="geometry" />
        </mxCell>
        <mxCell id="rIkuIv-mlls3RrGX7SVf-41" value="&lt;span style=&quot;font-size: 11px;&quot;&gt;Welcome&lt;br&gt;&lt;/span&gt;" style="rounded=1;whiteSpace=wrap;html=1;fontSize=12;glass=0;strokeWidth=1;shadow=0;fontStyle=0;labelBackgroundColor=default;labelBorderColor=none;" parent="1" vertex="1">
          <mxGeometry x="-1400" y="-960" width="120" height="40" as="geometry" />
        </mxCell>
        <mxCell id="rIkuIv-mlls3RrGX7SVf-52" value="" style="edgeStyle=orthogonalEdgeStyle;rounded=0;orthogonalLoop=1;jettySize=auto;html=1;startArrow=none;startFill=0;endArrow=classic;endFill=1;" parent="1" source="rIkuIv-mlls3RrGX7SVf-43" target="rIkuIv-mlls3RrGX7SVf-41" edge="1">
          <mxGeometry relative="1" as="geometry">
            <mxPoint x="-1340" y="-880" as="targetPoint" />
          </mxGeometry>
        </mxCell>
        <mxCell id="rIkuIv-mlls3RrGX7SVf-43" value="&lt;span style=&quot;font-size: 11px;&quot;&gt;Cleanup&lt;br&gt;&lt;/span&gt;" style="rounded=1;whiteSpace=wrap;html=1;fontSize=12;glass=0;strokeWidth=1;shadow=0;fontStyle=0;labelBackgroundColor=default;labelBorderColor=none;" parent="1" vertex="1">
          <mxGeometry x="-1400" y="-1040" width="120" height="40" as="geometry" />
        </mxCell>
        <mxCell id="rIkuIv-mlls3RrGX7SVf-64" value="&lt;span style=&quot;font-size: 11px;&quot;&gt;Is it a caption sensor?&lt;/span&gt;" style="rhombus;whiteSpace=wrap;html=1;" parent="1" vertex="1">
          <mxGeometry x="-750" y="-800" width="100" height="80" as="geometry" />
        </mxCell>
        <mxCell id="rIkuIv-mlls3RrGX7SVf-66" value="Yes" style="rounded=0;html=1;jettySize=auto;orthogonalLoop=1;fontSize=11;endArrow=classic;endFill=1;endSize=8;strokeWidth=1;shadow=0;labelBackgroundColor=default;fillColor=#dae8fc;strokeColor=#000000;exitX=0;exitY=0.5;exitDx=0;exitDy=0;entryX=0.5;entryY=0;entryDx=0;entryDy=0;edgeStyle=orthogonalEdgeStyle;" parent="1" source="rIkuIv-mlls3RrGX7SVf-64" target="rIkuIv-mlls3RrGX7SVf-68" edge="1">
          <mxGeometry x="-0.5" relative="1" as="geometry">
            <mxPoint as="offset" />
            <mxPoint x="-1179" y="-670" as="sourcePoint" />
            <mxPoint x="-700" y="-680" as="targetPoint" />
          </mxGeometry>
        </mxCell>
        <mxCell id="rIkuIv-mlls3RrGX7SVf-67" value="No" style="rounded=0;html=1;jettySize=auto;orthogonalLoop=1;fontSize=11;endArrow=classic;endFill=1;endSize=8;strokeWidth=1;shadow=0;labelBackgroundColor=default;fillColor=#dae8fc;strokeColor=#000000;exitX=1;exitY=0.5;exitDx=0;exitDy=0;edgeStyle=orthogonalEdgeStyle;entryX=0.5;entryY=0;entryDx=0;entryDy=0;" parent="1" source="rIkuIv-mlls3RrGX7SVf-64" target="rIkuIv-mlls3RrGX7SVf-69" edge="1">
          <mxGeometry x="-0.5385" relative="1" as="geometry">
            <mxPoint as="offset" />
            <mxPoint x="-690" y="-710" as="sourcePoint" />
            <mxPoint x="-560" y="-760" as="targetPoint" />
          </mxGeometry>
        </mxCell>
        <mxCell id="rIkuIv-mlls3RrGX7SVf-68" value="&lt;span style=&quot;font-size: 11px;&quot;&gt;Get random symptom&lt;br&gt;&lt;/span&gt;" style="rounded=1;whiteSpace=wrap;html=1;fontSize=12;glass=0;strokeWidth=1;shadow=0;fontStyle=0;labelBackgroundColor=default;labelBorderColor=none;" parent="1" vertex="1">
          <mxGeometry x="-860" y="-720" width="120" height="40" as="geometry" />
        </mxCell>
        <mxCell id="rIkuIv-mlls3RrGX7SVf-69" value="&lt;span style=&quot;font-size: 11px;&quot;&gt;Get random reading&lt;br&gt;&lt;/span&gt;" style="rounded=1;whiteSpace=wrap;html=1;fontSize=12;glass=0;strokeWidth=1;shadow=0;fontStyle=0;labelBackgroundColor=default;labelBorderColor=none;" parent="1" vertex="1">
          <mxGeometry x="-660" y="-720" width="120" height="40" as="geometry" />
        </mxCell>
        <mxCell id="rIkuIv-mlls3RrGX7SVf-72" value="" style="rounded=0;html=1;jettySize=auto;orthogonalLoop=1;fontSize=11;endArrow=classic;endFill=1;endSize=8;strokeWidth=1;shadow=0;labelBackgroundColor=none;edgeStyle=orthogonalEdgeStyle;exitX=0.5;exitY=1;exitDx=0;exitDy=0;" parent="1" source="rIkuIv-mlls3RrGX7SVf-68" target="rIkuIv-mlls3RrGX7SVf-83" edge="1">
          <mxGeometry x="-0.6667" y="9" relative="1" as="geometry">
            <mxPoint as="offset" />
            <mxPoint x="-1129" y="-550" as="sourcePoint" />
            <mxPoint x="-700" y="-640" as="targetPoint" />
          </mxGeometry>
        </mxCell>
        <mxCell id="rIkuIv-mlls3RrGX7SVf-73" value="" style="rounded=0;html=1;jettySize=auto;orthogonalLoop=1;fontSize=11;endArrow=classic;endFill=1;endSize=8;strokeWidth=1;shadow=0;labelBackgroundColor=none;edgeStyle=orthogonalEdgeStyle;exitX=0.5;exitY=1;exitDx=0;exitDy=0;" parent="1" source="rIkuIv-mlls3RrGX7SVf-69" target="rIkuIv-mlls3RrGX7SVf-83" edge="1">
          <mxGeometry x="-0.6667" y="9" relative="1" as="geometry">
            <mxPoint as="offset" />
            <mxPoint x="-790" y="-670" as="sourcePoint" />
            <mxPoint x="-700" y="-640" as="targetPoint" />
          </mxGeometry>
        </mxCell>
        <mxCell id="rIkuIv-mlls3RrGX7SVf-82" value="" style="edgeStyle=orthogonalEdgeStyle;rounded=0;orthogonalLoop=1;jettySize=auto;html=1;startArrow=none;startFill=0;endArrow=classic;endFill=1;entryX=0.5;entryY=0;entryDx=0;entryDy=0;" parent="1" source="rIkuIv-mlls3RrGX7SVf-80" target="wiTVFT4P7hwrUB9j7R4p-1" edge="1">
          <mxGeometry relative="1" as="geometry" />
        </mxCell>
        <mxCell id="rIkuIv-mlls3RrGX7SVf-80" value="&lt;span style=&quot;font-size: 11px;&quot;&gt;Pick a random sensor&lt;br&gt;&lt;/span&gt;" style="rounded=1;whiteSpace=wrap;html=1;fontSize=12;glass=0;strokeWidth=1;shadow=0;fontStyle=0;labelBackgroundColor=default;labelBorderColor=none;" parent="1" vertex="1">
          <mxGeometry x="-760" y="-960" width="120" height="40" as="geometry" />
        </mxCell>
        <mxCell id="rIkuIv-mlls3RrGX7SVf-83" value="&lt;span style=&quot;font-size: 11px;&quot;&gt;Store&lt;br&gt;&lt;/span&gt;" style="rounded=1;whiteSpace=wrap;html=1;fontSize=12;glass=0;strokeWidth=1;shadow=0;fontStyle=0;labelBackgroundColor=default;labelBorderColor=none;" parent="1" vertex="1">
          <mxGeometry x="-760" y="-640" width="120" height="40" as="geometry" />
        </mxCell>
        <mxCell id="wiTVFT4P7hwrUB9j7R4p-2" value="" style="edgeStyle=orthogonalEdgeStyle;rounded=0;orthogonalLoop=1;jettySize=auto;html=1;" parent="1" source="wiTVFT4P7hwrUB9j7R4p-1" target="rIkuIv-mlls3RrGX7SVf-64" edge="1">
          <mxGeometry relative="1" as="geometry" />
        </mxCell>
        <mxCell id="wiTVFT4P7hwrUB9j7R4p-1" value="&lt;span style=&quot;font-size: 11px;&quot;&gt;Retrieve its plant&lt;br&gt;&lt;/span&gt;" style="rounded=1;whiteSpace=wrap;html=1;fontSize=12;glass=0;strokeWidth=1;shadow=0;fontStyle=0;labelBackgroundColor=default;labelBorderColor=none;" parent="1" vertex="1">
          <mxGeometry x="-760" y="-880" width="120" height="40" as="geometry" />
        </mxCell>
        <mxCell id="wiTVFT4P7hwrUB9j7R4p-7" value="Yes" style="edgeStyle=orthogonalEdgeStyle;rounded=0;orthogonalLoop=1;jettySize=auto;html=1;" parent="1" source="wiTVFT4P7hwrUB9j7R4p-5" target="wiTVFT4P7hwrUB9j7R4p-6" edge="1">
          <mxGeometry relative="1" as="geometry" />
        </mxCell>
        <mxCell id="wiTVFT4P7hwrUB9j7R4p-13" value="No" style="edgeStyle=orthogonalEdgeStyle;rounded=0;orthogonalLoop=1;jettySize=auto;html=1;entryX=0;entryY=0.5;entryDx=0;entryDy=0;exitX=0;exitY=0.5;exitDx=0;exitDy=0;" parent="1" source="wiTVFT4P7hwrUB9j7R4p-5" target="wiTVFT4P7hwrUB9j7R4p-8" edge="1">
          <mxGeometry x="-0.84" relative="1" as="geometry">
            <mxPoint x="-1660" y="-240" as="targetPoint" />
            <mxPoint as="offset" />
            <Array as="points">
              <mxPoint x="-1600" y="-280" />
              <mxPoint x="-1600" y="-60" />
            </Array>
          </mxGeometry>
        </mxCell>
        <mxCell id="wiTVFT4P7hwrUB9j7R4p-5" value="&lt;span style=&quot;font-size: 11px;&quot;&gt;Is it a caption?&lt;/span&gt;" style="rhombus;whiteSpace=wrap;html=1;" parent="1" vertex="1">
          <mxGeometry x="-1550" y="-320" width="100" height="80" as="geometry" />
        </mxCell>
        <mxCell id="wiTVFT4P7hwrUB9j7R4p-9" value="Yes" style="edgeStyle=orthogonalEdgeStyle;rounded=0;orthogonalLoop=1;jettySize=auto;html=1;" parent="1" source="wiTVFT4P7hwrUB9j7R4p-6" target="wiTVFT4P7hwrUB9j7R4p-8" edge="1">
          <mxGeometry relative="1" as="geometry" />
        </mxCell>
        <mxCell id="wiTVFT4P7hwrUB9j7R4p-11" value="" style="edgeStyle=orthogonalEdgeStyle;rounded=0;orthogonalLoop=1;jettySize=auto;html=1;" parent="1" source="wiTVFT4P7hwrUB9j7R4p-6" target="wiTVFT4P7hwrUB9j7R4p-10" edge="1">
          <mxGeometry relative="1" as="geometry" />
        </mxCell>
        <mxCell id="wiTVFT4P7hwrUB9j7R4p-6" value="&lt;span style=&quot;font-size: 11px;&quot;&gt;Symptoms match&lt;br&gt;to diagnosis?&lt;/span&gt;" style="rhombus;whiteSpace=wrap;html=1;" parent="1" vertex="1">
          <mxGeometry x="-1550" y="-200" width="100" height="80" as="geometry" />
        </mxCell>
        <mxCell id="wiTVFT4P7hwrUB9j7R4p-8" value="&lt;span style=&quot;font-size: 11px;&quot;&gt;Diagnosis&lt;br&gt;&lt;/span&gt;" style="rounded=1;whiteSpace=wrap;html=1;fontSize=12;glass=0;strokeWidth=1;shadow=0;fontStyle=0;labelBackgroundColor=default;labelBorderColor=none;" parent="1" vertex="1">
          <mxGeometry x="-1560" y="-80" width="120" height="40" as="geometry" />
        </mxCell>
        <mxCell id="wiTVFT4P7hwrUB9j7R4p-10" value="&lt;span style=&quot;font-size: 11px;&quot;&gt;No diagnosis&lt;br&gt;&lt;/span&gt;" style="rounded=1;whiteSpace=wrap;html=1;fontSize=12;glass=0;strokeWidth=1;shadow=0;fontStyle=0;labelBackgroundColor=default;labelBorderColor=none;" parent="1" vertex="1">
          <mxGeometry x="-1420" y="-180" width="120" height="40" as="geometry" />
        </mxCell>
        <mxCell id="wiTVFT4P7hwrUB9j7R4p-17" value="" style="edgeStyle=orthogonalEdgeStyle;rounded=0;orthogonalLoop=1;jettySize=auto;html=1;exitX=0.5;exitY=1;exitDx=0;exitDy=0;" parent="1" source="wiTVFT4P7hwrUB9j7R4p-8" target="f52ocGWcmNRcFjpljzRT-9" edge="1">
          <mxGeometry relative="1" as="geometry">
            <mxPoint x="-1660" y="-200" as="sourcePoint" />
            <mxPoint x="-1500" as="targetPoint" />
          </mxGeometry>
        </mxCell>
        <mxCell id="wiTVFT4P7hwrUB9j7R4p-16" value="&lt;span style=&quot;font-size: 11px;&quot;&gt;Actuator start&lt;/span&gt;&lt;span style=&quot;font-size: 11px;&quot;&gt;&lt;br&gt;&lt;/span&gt;" style="rounded=1;whiteSpace=wrap;html=1;fontSize=12;glass=0;strokeWidth=1;shadow=0;fontStyle=1;labelBackgroundColor=none;labelBorderColor=none;" parent="1" vertex="1">
          <mxGeometry x="-1560" y="120" width="120" height="40" as="geometry" />
        </mxCell>
        <mxCell id="f52ocGWcmNRcFjpljzRT-6" value="" style="edgeStyle=orthogonalEdgeStyle;rounded=0;orthogonalLoop=1;jettySize=auto;html=1;labelBackgroundColor=default;fontFamily=Helvetica;fontSize=11;fontColor=default;" parent="1" source="wiTVFT4P7hwrUB9j7R4p-18" target="UTEY5H4NrM9zh-KiE-rb-36" edge="1">
          <mxGeometry relative="1" as="geometry" />
        </mxCell>
        <mxCell id="wiTVFT4P7hwrUB9j7R4p-18" value="&lt;span style=&quot;font-size: 11px;&quot;&gt;Actuator start&lt;/span&gt;&lt;span style=&quot;font-size: 11px;&quot;&gt;&lt;br&gt;&lt;/span&gt;" style="rounded=1;whiteSpace=wrap;html=1;fontSize=12;glass=0;strokeWidth=1;shadow=0;fontStyle=1;labelBackgroundColor=none;labelBorderColor=none;" parent="1" vertex="1">
          <mxGeometry x="-1038" y="-594" width="120" height="40" as="geometry" />
        </mxCell>
        <mxCell id="wiTVFT4P7hwrUB9j7R4p-39" value="Yes" style="edgeStyle=orthogonalEdgeStyle;rounded=0;orthogonalLoop=1;jettySize=auto;html=1;exitX=0;exitY=0.5;exitDx=0;exitDy=0;entryX=0.5;entryY=0;entryDx=0;entryDy=0;labelBackgroundColor=#FFFFFF;" parent="1" target="wiTVFT4P7hwrUB9j7R4p-38" edge="1">
          <mxGeometry x="-0.5384" relative="1" as="geometry">
            <mxPoint x="-1018" y="-274.0000000000002" as="sourcePoint" />
            <mxPoint x="1" as="offset" />
          </mxGeometry>
        </mxCell>
        <mxCell id="wiTVFT4P7hwrUB9j7R4p-44" value="No" style="edgeStyle=orthogonalEdgeStyle;rounded=0;orthogonalLoop=1;jettySize=auto;html=1;exitX=1;exitY=0.5;exitDx=0;exitDy=0;entryX=0.5;entryY=0;entryDx=0;entryDy=0;labelBackgroundColor=#FFFFFF;" parent="1" source="wiTVFT4P7hwrUB9j7R4p-34" target="wiTVFT4P7hwrUB9j7R4p-43" edge="1">
          <mxGeometry x="-0.5388" relative="1" as="geometry">
            <mxPoint x="-918" y="-274.0000000000002" as="sourcePoint" />
            <mxPoint x="-1" as="offset" />
          </mxGeometry>
        </mxCell>
        <mxCell id="wiTVFT4P7hwrUB9j7R4p-34" value="&lt;span style=&quot;font-size: 11px;&quot;&gt;Is the reading in normal range?&lt;/span&gt;" style="rhombus;whiteSpace=wrap;html=1;labelBackgroundColor=none;" parent="1" vertex="1">
          <mxGeometry x="-1028" y="-314" width="100" height="80" as="geometry" />
        </mxCell>
        <mxCell id="wiTVFT4P7hwrUB9j7R4p-35" value="&lt;span style=&quot;font-size: 11px;&quot;&gt;Actuator off&lt;br&gt;&lt;/span&gt;" style="rounded=1;whiteSpace=wrap;html=1;fontSize=12;glass=0;strokeWidth=1;shadow=0;fontStyle=0;labelBackgroundColor=none;labelBorderColor=none;" parent="1" vertex="1">
          <mxGeometry x="-1108" y="-114" width="120" height="40" as="geometry" />
        </mxCell>
        <mxCell id="wiTVFT4P7hwrUB9j7R4p-40" value="Yes" style="edgeStyle=orthogonalEdgeStyle;rounded=0;orthogonalLoop=1;jettySize=auto;html=1;exitX=1;exitY=0.5;exitDx=0;exitDy=0;labelBackgroundColor=#FFFFFF;" parent="1" source="wiTVFT4P7hwrUB9j7R4p-38" target="wiTVFT4P7hwrUB9j7R4p-35" edge="1">
          <mxGeometry x="-0.75" relative="1" as="geometry">
            <mxPoint as="offset" />
          </mxGeometry>
        </mxCell>
        <mxCell id="wiTVFT4P7hwrUB9j7R4p-49" value="No" style="edgeStyle=orthogonalEdgeStyle;rounded=0;orthogonalLoop=1;jettySize=auto;html=1;exitX=0;exitY=0.5;exitDx=0;exitDy=0;labelBackgroundColor=#FFFFFF;" parent="1" source="wiTVFT4P7hwrUB9j7R4p-38" target="wiTVFT4P7hwrUB9j7R4p-48" edge="1">
          <mxGeometry x="-0.6366" relative="1" as="geometry">
            <mxPoint as="offset" />
          </mxGeometry>
        </mxCell>
        <mxCell id="wiTVFT4P7hwrUB9j7R4p-38" value="&lt;span style=&quot;font-size: 11px;&quot;&gt;Is it on?&lt;/span&gt;" style="rhombus;whiteSpace=wrap;html=1;labelBackgroundColor=none;" parent="1" vertex="1">
          <mxGeometry x="-1168" y="-234" width="100" height="80" as="geometry" />
        </mxCell>
        <mxCell id="wiTVFT4P7hwrUB9j7R4p-41" value="&lt;span style=&quot;font-size: 11px;&quot;&gt;Actuator on&lt;br&gt;&lt;/span&gt;" style="rounded=1;whiteSpace=wrap;html=1;fontSize=12;glass=0;strokeWidth=1;shadow=0;fontStyle=0;labelBackgroundColor=none;labelBorderColor=none;" parent="1" vertex="1">
          <mxGeometry x="-828" y="-114" width="120" height="40" as="geometry" />
        </mxCell>
        <mxCell id="wiTVFT4P7hwrUB9j7R4p-45" value="No" style="edgeStyle=orthogonalEdgeStyle;rounded=0;orthogonalLoop=1;jettySize=auto;html=1;entryX=0.5;entryY=0;entryDx=0;entryDy=0;exitX=1;exitY=0.5;exitDx=0;exitDy=0;labelBackgroundColor=#FFFFFF;" parent="1" source="wiTVFT4P7hwrUB9j7R4p-43" target="wiTVFT4P7hwrUB9j7R4p-41" edge="1">
          <mxGeometry x="-0.8572" relative="1" as="geometry">
            <mxPoint x="-1" as="offset" />
          </mxGeometry>
        </mxCell>
        <mxCell id="wiTVFT4P7hwrUB9j7R4p-47" value="Yes" style="edgeStyle=orthogonalEdgeStyle;rounded=0;orthogonalLoop=1;jettySize=auto;html=1;exitX=0;exitY=0.5;exitDx=0;exitDy=0;labelBackgroundColor=#FFFFFF;" parent="1" source="wiTVFT4P7hwrUB9j7R4p-43" target="wiTVFT4P7hwrUB9j7R4p-46" edge="1">
          <mxGeometry x="-0.7332" relative="1" as="geometry">
            <mxPoint as="offset" />
          </mxGeometry>
        </mxCell>
        <mxCell id="wiTVFT4P7hwrUB9j7R4p-43" value="&lt;span style=&quot;font-size: 11px;&quot;&gt;Is it on?&lt;/span&gt;" style="rhombus;whiteSpace=wrap;html=1;labelBackgroundColor=none;" parent="1" vertex="1">
          <mxGeometry x="-888" y="-234" width="100" height="80" as="geometry" />
        </mxCell>
        <mxCell id="wiTVFT4P7hwrUB9j7R4p-46" value="&lt;span style=&quot;font-size: 11px;&quot;&gt;Do nothing&lt;br&gt;&lt;/span&gt;" style="rounded=1;whiteSpace=wrap;html=1;fontSize=12;glass=0;strokeWidth=1;shadow=0;fontStyle=0;labelBackgroundColor=none;labelBorderColor=none;" parent="1" vertex="1">
          <mxGeometry x="-968" y="-114" width="120" height="40" as="geometry" />
        </mxCell>
        <mxCell id="wiTVFT4P7hwrUB9j7R4p-48" value="&lt;span style=&quot;font-size: 11px;&quot;&gt;Do nothing&lt;br&gt;&lt;/span&gt;" style="rounded=1;whiteSpace=wrap;html=1;fontSize=12;glass=0;strokeWidth=1;shadow=0;fontStyle=0;labelBackgroundColor=none;labelBorderColor=none;" parent="1" vertex="1">
          <mxGeometry x="-1248" y="-114" width="120" height="40" as="geometry" />
        </mxCell>
        <mxCell id="f52ocGWcmNRcFjpljzRT-4" value="" style="edgeStyle=orthogonalEdgeStyle;rounded=0;orthogonalLoop=1;jettySize=auto;html=1;labelBackgroundColor=default;fontFamily=Helvetica;fontSize=11;fontColor=default;" parent="1" source="f52ocGWcmNRcFjpljzRT-3" target="wiTVFT4P7hwrUB9j7R4p-34" edge="1">
          <mxGeometry x="-0.5385" relative="1" as="geometry">
            <mxPoint x="-978" y="-314" as="targetPoint" />
            <mxPoint as="offset" />
          </mxGeometry>
        </mxCell>
        <mxCell id="f52ocGWcmNRcFjpljzRT-3" value="&lt;span style=&quot;font-size: 11px;&quot;&gt;Fetch all suitable actuators of the plant&lt;br&gt;&lt;/span&gt;" style="rounded=1;whiteSpace=wrap;html=1;fontSize=12;glass=0;strokeWidth=1;shadow=0;fontStyle=0;labelBackgroundColor=default;labelBorderColor=none;" parent="1" vertex="1">
          <mxGeometry x="-1038" y="-394" width="120" height="40" as="geometry" />
        </mxCell>
        <mxCell id="f52ocGWcmNRcFjpljzRT-8" value="Iteration over all actuators" style="text;html=1;strokeColor=none;fillColor=none;align=center;verticalAlign=middle;whiteSpace=wrap;rounded=0;shadow=0;glass=0;labelBackgroundColor=default;labelBorderColor=none;strokeWidth=1;fontFamily=Helvetica;fontSize=12;fontColor=default;" parent="1" vertex="1">
          <mxGeometry x="-1238" y="-314" width="80" height="30" as="geometry" />
        </mxCell>
        <mxCell id="f52ocGWcmNRcFjpljzRT-10" value="" style="edgeStyle=orthogonalEdgeStyle;rounded=0;orthogonalLoop=1;jettySize=auto;html=1;labelBackgroundColor=default;fontFamily=Helvetica;fontSize=12;fontColor=default;" parent="1" source="f52ocGWcmNRcFjpljzRT-9" target="wiTVFT4P7hwrUB9j7R4p-16" edge="1">
          <mxGeometry relative="1" as="geometry" />
        </mxCell>
        <mxCell id="f52ocGWcmNRcFjpljzRT-9" value="&lt;span style=&quot;font-size: 11px;&quot;&gt;Is it a reading?&lt;/span&gt;" style="rhombus;whiteSpace=wrap;html=1;" parent="1" vertex="1">
          <mxGeometry x="-1550" width="100" height="80" as="geometry" />
        </mxCell>
        <mxCell id="f52ocGWcmNRcFjpljzRT-17" value="" style="edgeStyle=orthogonalEdgeStyle;rounded=0;orthogonalLoop=1;jettySize=auto;html=1;labelBackgroundColor=default;fontFamily=Helvetica;fontSize=12;fontColor=default;" parent="1" source="f52ocGWcmNRcFjpljzRT-14" target="rIkuIv-mlls3RrGX7SVf-80" edge="1">
          <mxGeometry relative="1" as="geometry">
            <mxPoint x="-700" y="-1040" as="targetPoint" />
          </mxGeometry>
        </mxCell>
        <mxCell id="f52ocGWcmNRcFjpljzRT-14" value="&lt;span style=&quot;font-size: 11px;&quot;&gt;Sampling&lt;br&gt;&lt;/span&gt;" style="rounded=1;whiteSpace=wrap;html=1;fontSize=12;glass=0;strokeWidth=1;shadow=0;fontStyle=1;labelBackgroundColor=default;labelBorderColor=none;" parent="1" vertex="1">
          <mxGeometry x="-760" y="-1040" width="120" height="40" as="geometry" />
        </mxCell>
        <mxCell id="J3JpyXvdzX_cFR_8wN44-1" value="&lt;span style=&quot;font-size: 11px;&quot;&gt;Health checker&lt;br&gt;&lt;/span&gt;" style="rounded=1;whiteSpace=wrap;html=1;fontSize=12;glass=0;strokeWidth=1;shadow=0;fontStyle=1;labelBackgroundColor=default;labelBorderColor=none;" vertex="1" parent="1">
          <mxGeometry x="-1400" y="-740" width="120" height="40" as="geometry" />
        </mxCell>
        <mxCell id="J3JpyXvdzX_cFR_8wN44-5" value="" style="edgeStyle=orthogonalEdgeStyle;rounded=0;orthogonalLoop=1;jettySize=auto;html=1;exitX=0.5;exitY=1;exitDx=0;exitDy=0;" edge="1" parent="1" source="J3JpyXvdzX_cFR_8wN44-6" target="J3JpyXvdzX_cFR_8wN44-1">
          <mxGeometry relative="1" as="geometry">
            <mxPoint x="-1360" y="-680" as="sourcePoint" />
            <mxPoint x="-1360" y="-630" as="targetPoint" />
          </mxGeometry>
        </mxCell>
        <mxCell id="J3JpyXvdzX_cFR_8wN44-6" value="&lt;span style=&quot;font-size: 11px;&quot;&gt;Consult percepts samples&lt;br&gt;&lt;/span&gt;" style="rounded=1;whiteSpace=wrap;html=1;fontSize=12;glass=0;strokeWidth=1;shadow=0;fontStyle=0;labelBackgroundColor=default;labelBorderColor=none;" vertex="1" parent="1">
          <mxGeometry x="-1520" y="-820" width="120" height="40" as="geometry" />
        </mxCell>
        <mxCell id="J3JpyXvdzX_cFR_8wN44-7" value="&lt;span style=&quot;font-size: 11px;&quot;&gt;Greenhouse Status&lt;br&gt;&lt;/span&gt;" style="rounded=1;whiteSpace=wrap;html=1;fontSize=12;glass=0;strokeWidth=1;shadow=0;fontStyle=1;labelBackgroundColor=default;labelBorderColor=none;" vertex="1" parent="1">
          <mxGeometry x="-1400" y="-660" width="120" height="40" as="geometry" />
        </mxCell>
        <mxCell id="J3JpyXvdzX_cFR_8wN44-8" value="" style="edgeStyle=orthogonalEdgeStyle;rounded=0;orthogonalLoop=1;jettySize=auto;html=1;" edge="1" parent="1" source="J3JpyXvdzX_cFR_8wN44-1" target="J3JpyXvdzX_cFR_8wN44-7">
          <mxGeometry relative="1" as="geometry">
            <mxPoint x="-1350" y="-710" as="sourcePoint" />
            <mxPoint x="-1350" y="-670" as="targetPoint" />
          </mxGeometry>
        </mxCell>
        <mxCell id="J3JpyXvdzX_cFR_8wN44-9" value="&lt;span style=&quot;font-size: 11px;&quot;&gt;Debug mode?&lt;/span&gt;" style="rhombus;whiteSpace=wrap;html=1;labelBackgroundColor=none;" vertex="1" parent="1">
          <mxGeometry x="-1390" y="-880" width="100" height="80" as="geometry" />
        </mxCell>
        <mxCell id="J3JpyXvdzX_cFR_8wN44-10" value="Yes" style="edgeStyle=orthogonalEdgeStyle;rounded=0;orthogonalLoop=1;jettySize=auto;html=1;startArrow=none;startFill=0;endArrow=classic;endFill=1;exitX=0;exitY=0.5;exitDx=0;exitDy=0;entryX=0.5;entryY=0;entryDx=0;entryDy=0;" edge="1" parent="1" source="J3JpyXvdzX_cFR_8wN44-9" target="J3JpyXvdzX_cFR_8wN44-6">
          <mxGeometry relative="1" as="geometry">
            <mxPoint x="-1330" y="-910" as="sourcePoint" />
            <mxPoint x="-1158" y="-950" as="targetPoint" />
          </mxGeometry>
        </mxCell>
        <mxCell id="J3JpyXvdzX_cFR_8wN44-11" value="&lt;span style=&quot;font-size: 11px;&quot;&gt;Sampling&lt;br&gt;&lt;/span&gt;" style="rounded=1;whiteSpace=wrap;html=1;fontSize=12;glass=0;strokeWidth=1;shadow=0;fontStyle=1;labelBackgroundColor=default;labelBorderColor=none;" vertex="1" parent="1">
          <mxGeometry x="-1280" y="-820" width="120" height="40" as="geometry" />
        </mxCell>
        <mxCell id="J3JpyXvdzX_cFR_8wN44-12" value="No" style="edgeStyle=orthogonalEdgeStyle;rounded=0;orthogonalLoop=1;jettySize=auto;html=1;startArrow=none;startFill=0;endArrow=classic;endFill=1;exitX=1;exitY=0.5;exitDx=0;exitDy=0;entryX=0.5;entryY=0;entryDx=0;entryDy=0;" edge="1" parent="1" source="J3JpyXvdzX_cFR_8wN44-9" target="J3JpyXvdzX_cFR_8wN44-11">
          <mxGeometry relative="1" as="geometry">
            <mxPoint x="-1330" y="-790" as="sourcePoint" />
            <mxPoint x="-1350" y="-750" as="targetPoint" />
          </mxGeometry>
        </mxCell>
        <mxCell id="J3JpyXvdzX_cFR_8wN44-13" value="" style="edgeStyle=orthogonalEdgeStyle;rounded=0;orthogonalLoop=1;jettySize=auto;html=1;exitX=0.5;exitY=1;exitDx=0;exitDy=0;entryX=0.5;entryY=0;entryDx=0;entryDy=0;" edge="1" parent="1" source="J3JpyXvdzX_cFR_8wN44-11" target="J3JpyXvdzX_cFR_8wN44-1">
          <mxGeometry relative="1" as="geometry">
            <mxPoint x="-1450" y="-770" as="sourcePoint" />
            <mxPoint x="-1330" y="-730" as="targetPoint" />
          </mxGeometry>
        </mxCell>
        <mxCell id="J3JpyXvdzX_cFR_8wN44-15" value="&lt;span style=&quot;font-size: 11px;&quot;&gt;Parse&lt;br&gt;&lt;/span&gt;" style="rounded=1;whiteSpace=wrap;html=1;fontSize=12;glass=0;strokeWidth=1;shadow=0;fontStyle=1;labelBackgroundColor=default;labelBorderColor=none;" vertex="1" parent="1">
          <mxGeometry x="-1040" width="120" height="40" as="geometry" />
        </mxCell>
        <mxCell id="J3JpyXvdzX_cFR_8wN44-17" value="&lt;span style=&quot;font-size: 11px;&quot;&gt;Parse readings&lt;br&gt;&lt;/span&gt;" style="rounded=1;whiteSpace=wrap;html=1;fontSize=12;glass=0;strokeWidth=1;shadow=0;fontStyle=1;labelBackgroundColor=default;labelBorderColor=none;" vertex="1" parent="1">
          <mxGeometry x="-1040" y="360" width="120" height="40" as="geometry" />
        </mxCell>
        <mxCell id="J3JpyXvdzX_cFR_8wN44-19" value="" style="edgeStyle=orthogonalEdgeStyle;rounded=0;orthogonalLoop=1;jettySize=auto;html=1;" edge="1" parent="1" source="J3JpyXvdzX_cFR_8wN44-15" target="J3JpyXvdzX_cFR_8wN44-22">
          <mxGeometry relative="1" as="geometry">
            <mxPoint x="-980" y="80" as="targetPoint" />
            <mxPoint x="-968" y="139" as="sourcePoint" />
          </mxGeometry>
        </mxCell>
        <mxCell id="J3JpyXvdzX_cFR_8wN44-26" value="" style="edgeStyle=orthogonalEdgeStyle;rounded=0;orthogonalLoop=1;jettySize=auto;html=1;" edge="1" parent="1" source="J3JpyXvdzX_cFR_8wN44-21" target="J3JpyXvdzX_cFR_8wN44-25">
          <mxGeometry relative="1" as="geometry" />
        </mxCell>
        <mxCell id="J3JpyXvdzX_cFR_8wN44-21" value="&lt;span style=&quot;font-size: 11px;&quot;&gt;Find diagnoses&lt;br&gt;&lt;/span&gt;" style="rounded=1;whiteSpace=wrap;html=1;fontSize=12;glass=0;strokeWidth=1;shadow=0;fontStyle=1;labelBackgroundColor=default;labelBorderColor=none;" vertex="1" parent="1">
          <mxGeometry x="-1040" y="200" width="120" height="40" as="geometry" />
        </mxCell>
        <mxCell id="J3JpyXvdzX_cFR_8wN44-24" value="Yes" style="edgeStyle=orthogonalEdgeStyle;rounded=0;orthogonalLoop=1;jettySize=auto;html=1;entryX=0.5;entryY=0;entryDx=0;entryDy=0;" edge="1" parent="1" source="J3JpyXvdzX_cFR_8wN44-22" target="J3JpyXvdzX_cFR_8wN44-21">
          <mxGeometry relative="1" as="geometry" />
        </mxCell>
        <mxCell id="J3JpyXvdzX_cFR_8wN44-22" value="&lt;span style=&quot;font-size: 11px;&quot;&gt;has symptoms?&lt;/span&gt;" style="rhombus;whiteSpace=wrap;html=1;" vertex="1" parent="1">
          <mxGeometry x="-1030" y="80" width="100" height="80" as="geometry" />
        </mxCell>
        <mxCell id="J3JpyXvdzX_cFR_8wN44-23" value="No" style="edgeStyle=orthogonalEdgeStyle;rounded=0;orthogonalLoop=1;jettySize=auto;html=1;exitX=1;exitY=0.5;exitDx=0;exitDy=0;entryX=1;entryY=0.5;entryDx=0;entryDy=0;" edge="1" parent="1" source="J3JpyXvdzX_cFR_8wN44-22" target="J3JpyXvdzX_cFR_8wN44-17">
          <mxGeometry x="-0.84" relative="1" as="geometry">
            <mxPoint x="-1550" y="-50" as="targetPoint" />
            <mxPoint as="offset" />
            <mxPoint x="-1540" y="-270" as="sourcePoint" />
          </mxGeometry>
        </mxCell>
        <mxCell id="J3JpyXvdzX_cFR_8wN44-27" value="" style="edgeStyle=orthogonalEdgeStyle;rounded=0;orthogonalLoop=1;jettySize=auto;html=1;" edge="1" parent="1" source="J3JpyXvdzX_cFR_8wN44-25" target="J3JpyXvdzX_cFR_8wN44-17">
          <mxGeometry relative="1" as="geometry" />
        </mxCell>
        <mxCell id="J3JpyXvdzX_cFR_8wN44-25" value="&lt;span style=&quot;font-size: 11px;&quot;&gt;Explain diagnoses&lt;br&gt;&lt;/span&gt;" style="rounded=1;whiteSpace=wrap;html=1;fontSize=12;glass=0;strokeWidth=1;shadow=0;fontStyle=0;labelBackgroundColor=default;labelBorderColor=none;" vertex="1" parent="1">
          <mxGeometry x="-1040" y="280" width="120" height="40" as="geometry" />
        </mxCell>
      </root>
    </mxGraphModel>
  </diagram>
</mxfile>
